<svg width="330" height="330" viewBox="0 0 330 330" fill="none" xmlns="http://www.w3.org/2000/svg">
<g clip-path="url(#clip0_3_5)">
<path d="M286.096 3.40313C284.136 1.2375 281.373 0 278.444 0H51.569C48.6608 0 45.8765 1.2375 43.9171 3.40313C41.9783 5.54813 41.009 8.43563 41.2977 11.3438L72.2352 320.719C72.7715 325.999 77.2058 330 82.5065 330H247.506C252.807 330 257.241 325.999 257.757 320.719L288.695 11.3438C289.004 8.43563 288.055 5.54813 286.096 3.40313Z" fill="#ECEFF1"/>
<path d="M258.644 105.187L238.225 309.375H91.7877L68.8939 81.0562C94.6752 72.8062 133.863 67.2375 165.006 92.8125C195.119 117.563 233.069 113.025 258.644 105.187Z" fill="#60A5FA"/>
</g>
<defs>
<clipPath id="clip0_3_5">
<rect width="330" height="330" fill="white"/>
</clipPath>
</defs>
</svg>
